<?xml version="1.0" standalone="no"?>
<!DOCTYPE svg PUBLIC "-//W3C//DTD SVG 20010904//EN"
 "http://www.w3.org/TR/2001/REC-SVG-20010904/DTD/svg10.dtd">
<svg version="1.0" xmlns="http://www.w3.org/2000/svg"
 width="900.000000pt" height="900.000000pt" viewBox="0 0 900.000000 900.000000"
 preserveAspectRatio="xMidYMid meet">

<g transform="translate(0.000000,900.000000) scale(0.100000,-0.100000)"
fill="#000000" stroke="none">
<path d="M4075 5783 c-71 -41 -181 -105 -242 -141 -62 -36 -113 -68 -113 -72
0 -14 108 -194 118 -198 6 -2 85 40 176 92 92 53 171 96 176 96 7 0 10 -371
10 -1060 l0 -1060 -119 0 c-93 0 -120 -3 -124 -14 -7 -17 -6 -206 0 -223 4
-10 62 -13 244 -13 l239 0 0 1335 0 1335 -117 -1 -118 0 -130 -76z"/>
<path d="M4685 5848 c-3 -7 -4 -607 -3 -1333 l3 -1320 240 0 240 0 0 120 0
120 -120 5 -120 5 -3 1208 -2 1207 -115 0 c-83 0 -117 -3 -120 -12z"/>
<path d="M2343 4762 c-101 -36 -176 -104 -222 -202 -23 -48 -26 -68 -26 -155
0 -93 2 -105 32 -165 39 -80 93 -136 170 -175 48 -25 72 -30 145 -33 77 -4 93
-1 145 23 32 14 69 33 82 41 l23 16 -32 34 c-33 33 -33 33 -59 15 -39 -27 -88
-41 -146 -41 -150 0 -262 107 -273 260 -7 97 17 160 83 227 88 87 203 105 315
49 l50 -25 27 24 c37 31 25 51 -51 89 -78 38 -187 45 -263 18z"/>
<path d="M1584 4654 c-31 -66 -73 -155 -94 -199 -21 -44 -59 -125 -85 -180
-26 -55 -51 -110 -56 -122 -7 -18 -17 -22 -61 -25 l-53 -3 -3 -107 -3 -108 46
0 45 0 0 65 0 65 323 -2 322 -3 3 -62 3 -63 45 0 45 0 -3 108 -3 107 -53 5
-52 5 -149 313 c-81 172 -151 315 -154 319 -3 3 -32 -48 -63 -113z m266 -520
c0 -2 -92 -4 -205 -4 -113 0 -205 2 -205 4 0 5 176 379 193 411 9 17 25 -9
114 -194 57 -117 103 -215 103 -217z"/>
<path d="M2875 4758 c-3 -7 -4 -171 -3 -363 l3 -350 40 0 40 0 0 360 0 360
-38 3 c-24 2 -39 -1 -42 -10z"/>
<path d="M3172 4587 l-184 -184 182 -181 181 -182 54 0 c30 0 55 3 55 7 0 4
-78 85 -172 180 l-173 173 178 178 c97 97 177 181 177 185 0 4 -26 7 -58 7
l-57 0 -183 -183z"/>
<path d="M5714 4760 c-11 -4 -34 -24 -52 -44 -28 -32 -32 -44 -32 -96 0 -52 4
-64 30 -94 76 -86 213 -68 254 34 9 22 16 50 16 63 -1 40 -38 106 -72 127 -34
21 -105 26 -144 10z m127 -69 c23 -23 29 -38 29 -71 0 -52 -42 -100 -88 -100
-70 0 -120 85 -88 148 31 61 99 71 147 23z"/>
<path d="M6055 4750 c-83 -55 -87 -195 -7 -255 35 -26 143 -29 167 -4 20 20 9
53 -14 44 -48 -20 -87 -17 -118 9 -52 44 -53 107 -1 156 20 19 30 21 76 16 43
-5 54 -3 59 10 17 44 -105 62 -162 24z"/>
<path d="M6299 4766 c-2 -2 -2 -69 1 -148 5 -139 6 -143 28 -146 21 -3 22 0
22 63 l0 66 63 -3 62 -3 5 -60 c4 -52 8 -60 25 -60 19 0 20 8 23 148 l3 148
-23 -3 c-20 -3 -23 -9 -26 -60 l-3 -58 -64 0 -65 0 0 60 c0 56 -1 60 -23 60
-13 0 -26 -2 -28 -4z"/>
<path d="M6681 4753 c-48 -24 -71 -67 -71 -133 0 -68 24 -110 75 -134 72 -35
161 -9 200 58 22 36 23 112 2 153 -35 67 -131 93 -206 56z m134 -57 c28 -29
40 -66 31 -102 -9 -36 -50 -74 -81 -74 -67 0 -113 58 -101 124 13 71 102 101
151 52z"/>
<path d="M6982 4623 l3 -148 50 -3 c71 -4 117 22 129 70 8 33 6 41 -13 62 -21
22 -21 24 -5 53 37 64 -10 113 -111 113 l-56 0 3 -147z m111 76 c16 -26 1 -49
-33 -49 -26 0 -30 3 -30 28 0 16 3 32 7 36 12 11 45 2 56 -15z m5 -111 c30
-30 -11 -80 -52 -65 -16 6 -22 57 -9 70 11 11 48 8 61 -5z"/>
<path d="M7567 4764 c-4 -4 -7 -69 -7 -145 0 -112 3 -138 15 -143 33 -12 45 4
45 66 l0 59 63 -3 62 -3 3 -63 c3 -59 5 -63 25 -60 22 3 22 6 22 148 0 142 0
145 -22 148 -20 3 -22 -1 -25 -55 l-3 -58 -62 -3 -62 -3 -3 58 c-3 50 -6 58
-23 61 -12 2 -24 0 -28 -4z"/>
<path d="M7318 4698 c-74 -145 -106 -217 -101 -222 16 -16 46 -3 64 29 20 33
24 35 74 35 50 0 54 -2 74 -36 15 -25 27 -34 41 -32 12 2 21 8 21 13 1 15
-125 274 -133 274 -4 1 -22 -27 -40 -61z m52 -77 c14 -28 13 -31 -15 -31 -26
0 -29 7 -19 34 8 21 21 20 34 -3z"/>
<path d="M5650 4185 l0 -145 64 0 c54 0 70 4 92 24 33 27 39 86 12 112 -14 14
-14 20 -2 50 16 39 6 77 -25 93 -11 6 -47 11 -80 11 l-61 0 0 -145z m118 66
c4 -26 -12 -41 -45 -41 -20 0 -23 5 -23 36 0 34 1 35 33 32 25 -2 33 -8 35
-27z m4 -97 c12 -8 10 -38 -4 -52 -7 -7 -25 -12 -40 -12 -25 0 -28 3 -28 33 0
19 3 36 6 40 6 6 52 0 66 -9z"/>
<path d="M6032 4302 c-24 -20 -31 -32 -26 -45 5 -14 13 -17 30 -13 l24 6 0
-106 c0 -100 1 -105 20 -102 12 2 21 6 20 11 0 4 0 68 0 142 0 152 -5 160 -68
107z"/>
<path d="M6209 4301 c-39 -39 -40 -88 -2 -125 22 -22 35 -27 65 -24 25 2 38
-1 38 -8 0 -16 -58 -64 -77 -64 -24 0 -10 -35 15 -38 55 -8 131 91 132 170 0
80 -30 117 -98 118 -35 0 -49 -6 -73 -29z m114 -49 c10 -21 8 -27 -12 -43 -29
-24 -36 -24 -61 1 -25 25 -25 35 -1 59 25 25 59 17 74 -17z"/>
<path d="M6430 4305 c0 -24 3 -25 60 -25 33 0 60 -2 60 -5 0 -2 -18 -51 -41
-107 -23 -57 -44 -109 -46 -116 -4 -10 2 -13 23 -10 27 3 32 12 81 133 29 72
53 136 53 143 0 9 -26 12 -95 12 -95 0 -95 0 -95 -25z"/>
<path d="M6703 4315 c-42 -30 -56 -142 -27 -215 19 -46 39 -60 86 -60 63 1 88
41 88 144 0 73 -15 122 -40 136 -28 15 -83 12 -107 -5z m76 -34 c16 -11 27
-103 17 -155 -8 -43 -35 -55 -58 -26 -24 30 -25 151 -2 174 18 18 24 19 43 7z"/>
</g>
</svg>
